<svg width="24" height="24" viewBox="0 0 24 24" fill="none" xmlns="http://www.w3.org/2000/svg">
<mask id="mask0_1002_24118" style="mask-type:alpha" maskUnits="userSpaceOnUse" x="0" y="0" width="24" height="24">
<rect width="24" height="24" fill="#D9D9D9"/>
</mask>
<g mask="url(#mask0_1002_24118)">
<path d="M12 14.975C11.8667 14.975 11.7417 14.9542 11.625 14.9125C11.5083 14.8708 11.4 14.8 11.3 14.7L6.69999 10.1C6.51665 9.91665 6.42499 9.68332 6.42499 9.39999C6.42499 9.11665 6.51665 8.88332 6.69999 8.69999C6.88332 8.51665 7.11665 8.42499 7.39999 8.42499C7.68332 8.42499 7.91665 8.51665 8.09999 8.69999L12 12.6L15.9 8.69999C16.0833 8.51665 16.3167 8.42499 16.6 8.42499C16.8833 8.42499 17.1167 8.51665 17.3 8.69999C17.4833 8.88332 17.575 9.11665 17.575 9.39999C17.575 9.68332 17.4833 9.91665 17.3 10.1L12.7 14.7C12.6 14.8 12.4917 14.8708 12.375 14.9125C12.2583 14.9542 12.1333 14.975 12 14.975Z" fill="#4A679F"/>
</g>
</svg>
