<svg width="24" height="24" viewBox="0 0 24 24" fill="none" xmlns="http://www.w3.org/2000/svg">
<mask id="mask0_1002_24099" style="mask-type:alpha" maskUnits="userSpaceOnUse" x="0" y="0" width="24" height="24">
<rect width="24" height="24" fill="#D9D9D9"/>
</mask>
<g mask="url(#mask0_1002_24099)">
<path d="M11.3514 17.0779C12.9306 17.0779 14.2784 16.5228 15.3947 15.4125C16.5111 14.3023 17.0692 12.9502 17.0692 11.3563C17.0692 9.77607 16.5111 8.42742 15.3947 7.31034C14.2784 6.19327 12.9306 5.63474 11.3514 5.63474C9.75863 5.63474 8.40746 6.19327 7.29794 7.31034C6.18841 8.42742 5.63365 9.77607 5.63365 11.3563C5.63365 12.9502 6.18841 14.3023 7.29794 15.4125C8.40746 16.5228 9.75863 17.0779 11.3514 17.0779ZM11.3514 18.7126C10.3304 18.7126 9.37404 18.5185 8.48234 18.1303C7.59063 17.742 6.81465 17.2175 6.15438 16.5568C5.49411 15.8961 4.96998 15.1196 4.58199 14.2273C4.194 13.335 4 12.378 4 11.3563C4 10.3482 4.194 9.39804 4.58199 8.50575C4.96998 7.61345 5.49411 6.83355 6.15438 6.16603C6.81465 5.49851 7.59063 4.97063 8.48234 4.58238C9.37404 4.19413 10.3304 4 11.3514 4C12.3589 4 13.3084 4.19413 14.2001 4.58238C15.0918 4.97063 15.8712 5.49851 16.5383 6.16603C17.2054 6.83355 17.7329 7.61345 18.1209 8.50575C18.5089 9.39804 18.7029 10.3482 18.7029 11.3563C18.7029 12.2282 18.5599 13.0524 18.274 13.8289C17.9882 14.6054 17.5934 15.3137 17.0896 15.954L19.7648 18.6309C19.9281 18.7944 20.0064 18.9851 19.9996 19.2031C19.9928 19.421 19.9077 19.6117 19.7443 19.7752C19.581 19.9251 19.3904 20 19.1726 20C18.9547 20 18.7641 19.9251 18.6008 19.7752L15.9257 17.1188C15.2858 17.6228 14.5779 18.0145 13.8019 18.2937C13.0259 18.573 12.2091 18.7126 11.3514 18.7126Z" fill="#6E6D75"/>
</g>
</svg>
